<svg width="70" height="70" viewBox="0 0 70 70" fill="none" xmlns="http://www.w3.org/2000/svg">
<path d="M70 35C70 54.33 54.33 70 35 70C15.67 70 0 54.33 0 35C0 15.67 15.67 0 35 0C54.33 0 70 15.67 70 35Z" fill="white"/>
<path d="M35 0.5C54.0538 0.5 69.5 15.9462 69.5 35C69.5 54.0538 54.0538 69.5 35 69.5C15.9462 69.5 0.5 54.0538 0.5 35C0.5 15.9462 15.9462 0.5 35 0.5Z" stroke="#999999" stroke-opacity="0.3"/>
<path d="M47.7021 41.3042C46.7247 41.3042 45.7962 41.687 45.0957 42.3793C44.3952 43.0798 44.0043 43.9921 44.0043 44.9694C44.0043 45.9468 44.3871 46.8591 45.0957 47.5596C45.8043 48.2519 46.7247 48.6347 47.7021 48.6347C49.7058 48.6347 51.3348 46.9894 51.3348 44.9694C51.3348 42.9495 49.7058 41.3042 47.7021 41.3042ZM47.7021 47.0057C46.5781 47.0057 45.6333 46.0772 45.6333 44.9694C45.6333 43.8617 46.5781 42.9332 47.7021 42.9332C48.8098 42.9332 49.7058 43.8454 49.7058 44.9694C49.7058 46.0935 48.8098 47.0057 47.7021 47.0057ZM48.6469 29.0949C48.5003 28.9564 48.3048 28.8831 48.1012 28.8831H43.9228C43.4749 28.8831 43.1083 29.2496 43.1083 29.6976V36.3765C43.1083 36.8245 43.4749 37.191 43.9228 37.191H50.5528C51.0008 37.191 51.3673 36.8245 51.3673 36.3765V31.9049C51.3673 31.6768 51.2696 31.4569 51.0986 31.3022L48.6469 29.0949ZM49.7383 35.562H44.7373V30.504H47.7835L49.7383 32.2633V35.562ZM27.8121 41.3042C26.8347 41.3042 25.9061 41.687 25.2057 42.3793C24.5052 43.0798 24.1142 43.9921 24.1142 44.9694C24.1142 45.9468 24.497 46.8591 25.2057 47.5596C25.9143 48.2519 26.8347 48.6347 27.8121 48.6347C29.8157 48.6347 31.4447 46.9894 31.4447 44.9694C31.4447 42.9495 29.8157 41.3042 27.8121 41.3042ZM27.8121 47.0057C26.688 47.0057 25.7432 46.0772 25.7432 44.9694C25.7432 43.8617 26.688 42.9332 27.8121 42.9332C28.9198 42.9332 29.8157 43.8454 29.8157 44.9694C29.8157 46.0935 28.9198 47.0057 27.8121 47.0057ZM22.3794 42.306H20.7422V40.1395C20.7422 39.6915 20.3757 39.325 19.9277 39.325C19.4797 39.325 19.1132 39.6915 19.1132 40.1395V43.1205C19.1132 43.5685 19.4797 43.935 19.9277 43.935H22.3794C22.8273 43.935 23.1939 43.5685 23.1939 43.1205C23.1939 42.6726 22.8273 42.306 22.3794 42.306ZM26.5089 37.867C26.5089 37.4191 26.1423 37.0525 25.6944 37.0525H15.8145C15.3665 37.0525 15 37.4191 15 37.867C15 38.315 15.3665 38.6815 15.8145 38.6815H25.6944C26.1423 38.6815 26.5089 38.3231 26.5089 37.867ZM17.4679 34.9267L27.3478 34.9837C27.7958 34.9837 28.1623 34.6253 28.1704 34.1773C28.1786 33.7212 27.8121 33.3547 27.3641 33.3547L17.4842 33.2977C17.4761 33.2977 17.4761 33.2977 17.4761 33.2977C17.0281 33.2977 16.6616 33.6561 16.6616 34.104C16.6534 34.5602 17.02 34.9267 17.4679 34.9267ZM19.1295 31.2289H29.0094C29.4573 31.2289 29.8239 30.8623 29.8239 30.4144C29.8239 29.9664 29.4573 29.5999 29.0094 29.5999H19.1295C18.6815 29.5999 18.315 29.9664 18.315 30.4144C18.315 30.8623 18.6815 31.2289 19.1295 31.2289ZM54.6986 30.1293L48.8668 25.2993C48.7202 25.1771 48.541 25.112 48.3456 25.112H41.4875V22.1798C41.4875 21.7318 41.121 21.3653 40.673 21.3653H19.9277C19.4797 21.3653 19.1132 21.7318 19.1132 22.1798V28.1419C19.1132 28.5899 19.4797 28.9564 19.9277 28.9564C20.3757 28.9564 20.7422 28.5899 20.7422 28.1419V22.9943H39.8666V42.306H33.1877C32.7398 42.306 32.3732 42.6726 32.3732 43.1205C32.3732 43.5685 32.7398 43.935 33.1877 43.935H43.1328C43.5807 43.935 43.9473 43.5685 43.9473 43.1205C43.9473 42.6726 43.5807 42.306 43.1328 42.306H41.4956V26.741H48.0605L53.371 31.1393L53.314 42.2897H52.4669C52.0189 42.2897 51.6524 42.6563 51.6524 43.1042C51.6524 43.5522 52.0189 43.9187 52.4669 43.9187H54.1203C54.5683 43.9187 54.9348 43.5604 54.9348 43.1124L55 30.7646C54.9919 30.5203 54.886 30.284 54.6986 30.1293Z" fill="#00B307"/>
</svg>
