<svg width="277" height="32" viewBox="0 0 277 32" fill="none" xmlns="http://www.w3.org/2000/svg">
<rect x="0.5" y="0.5" width="44" height="30.7647" rx="4.79412" fill="#002603" stroke="#173B1A"/>
<path fill-rule="evenodd" clip-rule="evenodd" d="M12.5076 11.0424C12.1299 11.5081 11.5255 11.8755 10.9212 11.823C10.8456 11.1932 11.1415 10.5241 11.4877 10.1109C11.8655 9.632 12.5265 9.29089 13.0615 9.26465C13.1245 9.92063 12.879 10.5635 12.5076 11.0424ZM13.0545 11.9476C12.522 11.9157 12.0362 12.1144 11.6438 12.275C11.3913 12.3783 11.1775 12.4658 11.0148 12.4658C10.8322 12.4658 10.6096 12.3736 10.3596 12.2702C10.032 12.1345 9.65749 11.9795 9.26475 11.9869C8.36453 12.0001 7.52727 12.5314 7.06773 13.3776C6.12345 15.0701 6.82221 17.5759 7.73502 18.9535C8.18197 19.6357 8.71707 20.3835 9.42213 20.3573C9.73231 20.3451 9.95544 20.2464 10.1864 20.1443C10.4522 20.0268 10.7284 19.9046 11.1596 19.9046C11.5759 19.9046 11.84 20.0236 12.0935 20.1377C12.3345 20.2463 12.566 20.3505 12.9097 20.3441C13.6399 20.331 14.0995 19.6619 14.5464 18.9797C15.0288 18.2475 15.2407 17.5329 15.2729 17.4245L15.2767 17.4119C15.2759 17.4111 15.2699 17.4083 15.2594 17.4032C15.0982 17.3263 13.8658 16.7384 13.8539 15.1619C13.8421 13.8386 14.8315 13.1682 14.9872 13.0627C14.9967 13.0562 15.0031 13.0519 15.006 13.0496C14.3764 12.0788 13.3944 11.9738 13.0545 11.9476ZM18.1112 20.2721V10.0453H21.7938C23.695 10.0453 25.0233 11.4098 25.0233 13.4039C25.0233 15.3981 23.6698 16.7757 21.7435 16.7757H19.6346V20.2721H18.1112ZM19.6311 11.3834H21.3875C22.7095 11.3834 23.4649 12.1181 23.4649 13.4104C23.4649 14.7027 22.7095 15.4439 21.3812 15.4439H19.6311V11.3834ZM30.0531 19.0453C29.6502 19.8456 28.7625 20.3507 27.8057 20.3507C26.3893 20.3507 25.4009 19.4717 25.4009 18.1466C25.4009 16.8346 26.3578 16.0802 28.1267 15.9687L30.0279 15.8507V15.2865C30.0279 14.4534 29.5054 14.0008 28.5737 14.0008C27.8057 14.0008 27.2454 14.4141 27.1321 15.0438H25.7597C25.8038 13.7187 26.9999 12.7544 28.6178 12.7544C30.3615 12.7544 31.4947 13.7056 31.4947 15.1816V20.272H30.0845V19.0453H30.0531ZM28.213 19.1372C27.4009 19.1372 26.8847 18.7305 26.8847 18.1073C26.8847 17.4645 27.382 17.0906 28.3326 17.0315L30.026 16.92V17.4973C30.026 18.455 29.2454 19.1372 28.213 19.1372ZM36.1713 20.6721C35.5607 22.4629 34.8619 23.0533 33.3763 23.0533C33.263 23.0533 32.8853 23.0402 32.7971 23.014V21.7873C32.8916 21.8004 33.1245 21.8135 33.2441 21.8135C33.9177 21.8135 34.2954 21.5183 34.5283 20.7508L34.6668 20.2982L32.0858 12.8528H33.6784L35.4726 18.8944H35.5041L37.2982 12.8528H38.8468L36.1713 20.6721Z" fill="white"/>
<rect x="53.5" y="0.5" width="44" height="30.7647" rx="4.79412" fill="#002603" stroke="#173B1A"/>
<path fill-rule="evenodd" clip-rule="evenodd" d="M67.2279 20.989H64.5017L62.4575 12.9607C62.3605 12.5913 62.1544 12.2649 61.8514 12.111C61.0951 11.7243 60.2617 11.4165 59.3525 11.2613V10.9522H63.7441C64.3502 10.9522 64.8048 11.4165 64.8806 11.9558L65.9412 17.7469L68.666 10.9522H71.3164L67.2279 20.989ZM72.8307 20.989H70.2561L72.3762 10.9522H74.9508L72.8307 20.989ZM78.2811 13.7327C78.3568 13.1921 78.8114 12.883 79.3417 12.883C80.1751 12.8054 81.0829 12.9606 81.8406 13.346L82.2951 11.185C81.5375 10.8759 80.7041 10.7207 79.9478 10.7207C77.449 10.7207 75.6307 12.1109 75.6307 14.0404C75.6307 15.5083 76.9187 16.279 77.8278 16.7433C78.8114 17.2063 79.1902 17.5154 79.1144 17.9783C79.1144 18.6728 78.3568 18.9819 77.6005 18.9819C76.6914 18.9819 75.7822 18.7504 74.9502 18.3637L74.4956 20.526C75.4047 20.9114 76.3883 21.0666 77.2975 21.0666C80.0994 21.1429 81.8406 19.7539 81.8406 17.6693C81.8406 15.044 78.2811 14.8901 78.2811 13.7327ZM90.8509 20.989L88.8066 10.9522H86.6108C86.1562 10.9522 85.7016 11.2613 85.5501 11.7243L81.7646 20.989H84.415L84.944 19.5225H88.2005L88.5035 20.989H90.8509ZM86.9904 13.655L87.7467 17.4377H85.6267L86.9904 13.655Z" fill="white"/>
<rect x="106.5" y="0.5" width="44" height="30.7647" rx="4.79412" fill="#002603" stroke="#173B1A"/>
<path d="M124.531 30.6762L149.678 23.0659V26.7056C149.678 28.8985 147.901 30.6762 145.708 30.6762H124.531Z" fill="#FD6020"/>
<path fill-rule="evenodd" clip-rule="evenodd" d="M144.906 12.0583C146.289 12.0583 147.05 12.6983 147.05 13.9072C147.119 14.8316 146.497 15.6138 145.666 15.756L147.534 18.387H146.082L144.491 15.8271H144.352V18.387H143.176V12.0583H144.906ZM144.35 14.9738H144.696C145.457 14.9738 145.803 14.6183 145.803 13.9783C145.803 13.4094 145.457 13.0539 144.696 13.0539H144.35V14.9738ZM139.097 18.387H142.417V17.3204H140.273V15.6138H142.348V14.5471H140.273V13.125H142.417V12.0583H139.097V18.387ZM135.636 16.3249L134.045 12.0583H132.8L135.359 18.5293H135.982L138.541 12.0583H137.296L135.636 16.3249ZM121.596 15.2582C121.596 17.036 122.98 18.5293 124.709 18.5293C125.263 18.5293 125.747 18.3871 126.231 18.1737V16.7515C125.885 17.1782 125.401 17.4626 124.848 17.4626C123.741 17.4626 122.842 16.6093 122.842 15.4716V15.3294C122.772 14.1916 123.672 13.1961 124.778 13.125C125.332 13.125 125.885 13.4094 126.231 13.8361V12.4139C125.816 12.1294 125.263 12.0583 124.778 12.0583C122.98 11.9161 121.596 13.4094 121.596 15.2582ZM119.45 14.476C118.759 14.1916 118.551 14.0494 118.551 13.6938C118.62 13.2672 118.966 12.9116 119.381 12.9828C119.727 12.9828 120.073 13.1961 120.35 13.4805L120.972 12.6272C120.488 12.2005 119.866 11.9161 119.243 11.9161C118.275 11.845 117.444 12.6272 117.375 13.6227V13.6938C117.375 14.5472 117.721 15.0449 118.828 15.4005C119.105 15.4716 119.381 15.6138 119.658 15.756C119.866 15.8982 120.004 16.1116 120.004 16.396C120.004 16.8938 119.589 17.3204 119.174 17.3204H119.105C118.551 17.3204 118.067 16.9649 117.859 16.4671L117.099 17.2493C117.514 18.0315 118.344 18.4582 119.174 18.4582C120.281 18.5293 121.18 17.676 121.249 16.5382V16.3249C121.18 15.4716 120.834 15.0449 119.45 14.476ZM115.439 18.387H116.615V12.0583H115.439V18.387ZM109.976 12.0583H111.705H112.051C113.711 12.1294 115.026 13.5516 114.957 15.2582C114.957 16.1826 114.542 17.036 113.85 17.6759C113.227 18.1737 112.466 18.4581 111.705 18.387H109.976V12.0583ZM111.496 17.3205C112.049 17.3916 112.671 17.1782 113.087 16.8227C113.502 16.396 113.709 15.8272 113.709 15.1872C113.709 14.6183 113.502 14.0494 113.087 13.6228C112.671 13.2672 112.049 13.0539 111.496 13.125H111.15V17.3205H111.496Z" fill="white"/>
<path fill-rule="evenodd" clip-rule="evenodd" d="M129.755 11.9116C128.026 11.9116 126.573 13.3338 126.573 15.1826C126.573 16.9604 127.957 18.4537 129.755 18.5248C131.554 18.5959 132.937 17.1026 133.006 15.2538C132.937 13.4049 131.554 11.9116 129.755 11.9116V11.9116Z" fill="#FD6020"/>
<rect x="159.5" y="0.5" width="44" height="30.7647" rx="4.79412" fill="#002603" stroke="#173B1A"/>
<path fill-rule="evenodd" clip-rule="evenodd" d="M181.737 22.2741C180.17 23.5951 178.137 24.3925 175.916 24.3925C170.959 24.3925 166.941 20.4223 166.941 15.5249C166.941 10.6274 170.959 6.65723 175.916 6.65723C178.137 6.65723 180.17 7.45469 181.737 8.77568C183.304 7.45471 185.337 6.65727 187.559 6.65727C192.515 6.65727 196.533 10.6274 196.533 15.5249C196.533 20.4224 192.515 24.3926 187.559 24.3926C185.337 24.3926 183.304 23.5951 181.737 22.2741Z" fill="#ED0006"/>
<path fill-rule="evenodd" clip-rule="evenodd" d="M181.737 22.274C183.666 20.6475 184.89 18.2274 184.89 15.5249C184.89 12.8224 183.666 10.4022 181.737 8.77576C183.304 7.45472 185.337 6.65723 187.558 6.65723C192.515 6.65723 196.533 10.6274 196.533 15.5249C196.533 20.4223 192.515 24.3925 187.558 24.3925C185.337 24.3925 183.304 23.595 181.737 22.274Z" fill="#F9A000"/>
<path fill-rule="evenodd" clip-rule="evenodd" d="M181.735 22.2741C183.665 20.6476 184.888 18.2275 184.888 15.525C184.888 12.8225 183.665 10.4024 181.735 8.77588C179.806 10.4024 178.582 12.8225 178.582 15.525C178.582 18.2275 179.806 20.6476 181.735 22.2741Z" fill="#FF5E00"/>
<rect x="212.5" y="0.5" width="64" height="31" rx="4.79412" fill="#002603" stroke="#173B1A"/>
<g clip-path="url(#clip0_6005_14263)">
<rect width="11" height="11" transform="translate(217 4)" fill="#002603"/>
<path d="M225.708 9.04199H219.292C218.785 9.04199 218.375 9.4524 218.375 9.95866V13.167C218.375 13.6733 218.785 14.0837 219.292 14.0837H225.708C226.215 14.0837 226.625 13.6733 226.625 13.167V9.95866C226.625 9.4524 226.215 9.04199 225.708 9.04199Z" stroke="white" stroke-width="0.916667" stroke-linecap="round" stroke-linejoin="round"/>
<path d="M220.208 9.04199V7.20866C220.208 6.60087 220.45 6.01798 220.88 5.58821C221.309 5.15843 221.892 4.91699 222.5 4.91699C223.108 4.91699 223.691 5.15843 224.121 5.58821C224.55 6.01798 224.792 6.60087 224.792 7.20866V9.04199" stroke="white" stroke-width="0.916667" stroke-linecap="round" stroke-linejoin="round"/>
</g>
<path d="M233.278 13.077C232.772 13.077 232.317 12.989 231.914 12.813C231.518 12.6297 231.206 12.3803 230.979 12.065C230.752 11.7423 230.634 11.372 230.627 10.954H231.694C231.731 11.3133 231.877 11.6177 232.134 11.867C232.398 12.109 232.779 12.23 233.278 12.23C233.755 12.23 234.129 12.1127 234.4 11.878C234.679 11.636 234.818 11.328 234.818 10.954C234.818 10.6607 234.737 10.4223 234.576 10.239C234.415 10.0557 234.213 9.91633 233.971 9.821C233.729 9.72567 233.403 9.623 232.992 9.513C232.486 9.381 232.079 9.249 231.771 9.117C231.47 8.985 231.21 8.77967 230.99 8.501C230.777 8.215 230.671 7.83367 230.671 7.357C230.671 6.939 230.777 6.56867 230.99 6.246C231.203 5.92333 231.5 5.674 231.881 5.498C232.27 5.322 232.713 5.234 233.212 5.234C233.931 5.234 234.517 5.41367 234.972 5.773C235.434 6.13233 235.694 6.609 235.753 7.203H234.653C234.616 6.90967 234.462 6.653 234.191 6.433C233.92 6.20567 233.56 6.092 233.113 6.092C232.695 6.092 232.354 6.202 232.09 6.422C231.826 6.63467 231.694 6.93533 231.694 7.324C231.694 7.60267 231.771 7.83 231.925 8.006C232.086 8.182 232.281 8.31767 232.508 8.413C232.743 8.501 233.069 8.60367 233.487 8.721C233.993 8.86033 234.4 8.99967 234.708 9.139C235.016 9.271 235.28 9.48 235.5 9.766C235.72 10.0447 235.83 10.426 235.83 10.91C235.83 11.284 235.731 11.636 235.533 11.966C235.335 12.296 235.042 12.5637 234.653 12.769C234.264 12.9743 233.806 13.077 233.278 13.077ZM242.803 9.755C242.803 9.94567 242.792 10.1473 242.77 10.36H237.952C237.989 10.954 238.19 11.4197 238.557 11.757C238.931 12.087 239.382 12.252 239.91 12.252C240.343 12.252 240.702 12.153 240.988 11.955C241.281 11.7497 241.487 11.4783 241.604 11.141H242.682C242.521 11.7203 242.198 12.1933 241.714 12.56C241.23 12.9193 240.629 13.099 239.91 13.099C239.338 13.099 238.825 12.9707 238.37 12.714C237.923 12.4573 237.571 12.0943 237.314 11.625C237.057 11.1483 236.929 10.5983 236.929 9.975C236.929 9.35167 237.054 8.80533 237.303 8.336C237.552 7.86667 237.901 7.50733 238.348 7.258C238.803 7.00133 239.323 6.873 239.91 6.873C240.482 6.873 240.988 6.99767 241.428 7.247C241.868 7.49633 242.205 7.841 242.44 8.281C242.682 8.71367 242.803 9.205 242.803 9.755ZM241.769 9.546C241.769 9.16467 241.685 8.83833 241.516 8.567C241.347 8.28833 241.116 8.07933 240.823 7.94C240.537 7.79333 240.218 7.72 239.866 7.72C239.36 7.72 238.927 7.88133 238.568 8.204C238.216 8.52667 238.014 8.974 237.963 9.546H241.769ZM243.75 9.975C243.75 9.35167 243.875 8.809 244.124 8.347C244.374 7.87767 244.718 7.51467 245.158 7.258C245.606 7.00133 246.115 6.873 246.687 6.873C247.428 6.873 248.037 7.05267 248.513 7.412C248.997 7.77133 249.316 8.27 249.47 8.908H248.392C248.29 8.54133 248.088 8.25167 247.787 8.039C247.494 7.82633 247.127 7.72 246.687 7.72C246.115 7.72 245.653 7.918 245.301 8.314C244.949 8.70267 244.773 9.25633 244.773 9.975C244.773 10.701 244.949 11.262 245.301 11.658C245.653 12.054 246.115 12.252 246.687 12.252C247.127 12.252 247.494 12.1493 247.787 11.944C248.081 11.7387 248.282 11.4453 248.392 11.064H249.47C249.309 11.68 248.986 12.175 248.502 12.549C248.018 12.9157 247.413 13.099 246.687 13.099C246.115 13.099 245.606 12.9707 245.158 12.714C244.718 12.4573 244.374 12.0943 244.124 11.625C243.875 11.1557 243.75 10.6057 243.75 9.975ZM256.152 6.972V13H255.151V12.109C254.96 12.417 254.693 12.659 254.348 12.835C254.011 13.0037 253.637 13.088 253.226 13.088C252.757 13.088 252.335 12.9927 251.961 12.802C251.587 12.604 251.29 12.3107 251.07 11.922C250.857 11.5333 250.751 11.0603 250.751 10.503V6.972H251.741V10.371C251.741 10.965 251.891 11.4233 252.192 11.746C252.493 12.0613 252.903 12.219 253.424 12.219C253.959 12.219 254.381 12.054 254.689 11.724C254.997 11.394 255.151 10.9137 255.151 10.283V6.972H256.152ZM258.843 7.951C259.019 7.60633 259.268 7.33867 259.591 7.148C259.921 6.95733 260.321 6.862 260.79 6.862V7.896H260.526C259.404 7.896 258.843 8.50467 258.843 9.722V13H257.842V6.972H258.843V7.951ZM267.446 9.755C267.446 9.94567 267.435 10.1473 267.413 10.36H262.595C262.631 10.954 262.833 11.4197 263.2 11.757C263.574 12.087 264.025 12.252 264.553 12.252C264.985 12.252 265.345 12.153 265.631 11.955C265.924 11.7497 266.129 11.4783 266.247 11.141H267.325C267.163 11.7203 266.841 12.1933 266.357 12.56C265.873 12.9193 265.271 13.099 264.553 13.099C263.981 13.099 263.467 12.9707 263.013 12.714C262.565 12.4573 262.213 12.0943 261.957 11.625C261.7 11.1483 261.572 10.5983 261.572 9.975C261.572 9.35167 261.696 8.80533 261.946 8.336C262.195 7.86667 262.543 7.50733 262.991 7.258C263.445 7.00133 263.966 6.873 264.553 6.873C265.125 6.873 265.631 6.99767 266.071 7.247C266.511 7.49633 266.848 7.841 267.083 8.281C267.325 8.71367 267.446 9.205 267.446 9.755ZM266.412 9.546C266.412 9.16467 266.327 8.83833 266.159 8.567C265.99 8.28833 265.759 8.07933 265.466 7.94C265.18 7.79333 264.861 7.72 264.509 7.72C264.003 7.72 263.57 7.88133 263.211 8.204C262.859 8.52667 262.657 8.974 262.606 9.546H266.412Z" fill="white"/>
<path d="M223.803 20.216C223.803 20.664 223.695 21.084 223.479 21.476C223.271 21.868 222.939 22.184 222.483 22.424C222.035 22.664 221.467 22.784 220.779 22.784H219.375V26H217.695V17.624H220.779C221.427 17.624 221.979 17.736 222.435 17.96C222.891 18.184 223.231 18.492 223.455 18.884C223.687 19.276 223.803 19.72 223.803 20.216ZM220.707 21.428C221.171 21.428 221.515 21.324 221.739 21.116C221.963 20.9 222.075 20.6 222.075 20.216C222.075 19.4 221.619 18.992 220.707 18.992H219.375V21.428H220.707ZM224.564 22.652C224.564 21.98 224.696 21.384 224.96 20.864C225.232 20.344 225.596 19.944 226.052 19.664C226.516 19.384 227.032 19.244 227.6 19.244C228.096 19.244 228.528 19.344 228.896 19.544C229.272 19.744 229.572 19.996 229.796 20.3V19.352H231.488V26H229.796V25.028C229.58 25.34 229.28 25.6 228.896 25.808C228.52 26.008 228.084 26.108 227.588 26.108C227.028 26.108 226.516 25.964 226.052 25.676C225.596 25.388 225.232 24.984 224.96 24.464C224.696 23.936 224.564 23.332 224.564 22.652ZM229.796 22.676C229.796 22.268 229.716 21.92 229.556 21.632C229.396 21.336 229.18 21.112 228.908 20.96C228.636 20.8 228.344 20.72 228.032 20.72C227.72 20.72 227.432 20.796 227.168 20.948C226.904 21.1 226.688 21.324 226.52 21.62C226.36 21.908 226.28 22.252 226.28 22.652C226.28 23.052 226.36 23.404 226.52 23.708C226.688 24.004 226.904 24.232 227.168 24.392C227.44 24.552 227.728 24.632 228.032 24.632C228.344 24.632 228.636 24.556 228.908 24.404C229.18 24.244 229.396 24.02 229.556 23.732C229.716 23.436 229.796 23.084 229.796 22.676ZM239.489 19.352L235.373 29.144H233.585L235.025 25.832L232.361 19.352H234.245L235.961 23.996L237.701 19.352H239.489ZM248.65 19.256C249.466 19.256 250.122 19.508 250.618 20.012C251.122 20.508 251.374 21.204 251.374 22.1V26H249.694V22.328C249.694 21.808 249.562 21.412 249.298 21.14C249.034 20.86 248.674 20.72 248.218 20.72C247.762 20.72 247.398 20.86 247.126 21.14C246.862 21.412 246.73 21.808 246.73 22.328V26H245.05V22.328C245.05 21.808 244.918 21.412 244.654 21.14C244.39 20.86 244.03 20.72 243.574 20.72C243.11 20.72 242.742 20.86 242.47 21.14C242.206 21.412 242.074 21.808 242.074 22.328V26H240.394V19.352H242.074V20.156C242.29 19.876 242.566 19.656 242.902 19.496C243.246 19.336 243.622 19.256 244.03 19.256C244.55 19.256 245.014 19.368 245.422 19.592C245.83 19.808 246.146 20.12 246.37 20.528C246.586 20.144 246.898 19.836 247.306 19.604C247.722 19.372 248.17 19.256 248.65 19.256ZM259.149 22.532C259.149 22.772 259.133 22.988 259.101 23.18H254.241C254.281 23.66 254.449 24.036 254.745 24.308C255.041 24.58 255.405 24.716 255.837 24.716C256.461 24.716 256.905 24.448 257.169 23.912H258.981C258.789 24.552 258.421 25.08 257.877 25.496C257.333 25.904 256.665 26.108 255.873 26.108C255.233 26.108 254.657 25.968 254.145 25.688C253.641 25.4 253.245 24.996 252.957 24.476C252.677 23.956 252.537 23.356 252.537 22.676C252.537 21.988 252.677 21.384 252.957 20.864C253.237 20.344 253.629 19.944 254.133 19.664C254.637 19.384 255.217 19.244 255.873 19.244C256.505 19.244 257.069 19.38 257.565 19.652C258.069 19.924 258.457 20.312 258.729 20.816C259.009 21.312 259.149 21.884 259.149 22.532ZM257.409 22.052C257.401 21.62 257.245 21.276 256.941 21.02C256.637 20.756 256.265 20.624 255.825 20.624C255.409 20.624 255.057 20.752 254.769 21.008C254.489 21.256 254.317 21.604 254.253 22.052H257.409ZM264.059 19.256C264.851 19.256 265.491 19.508 265.979 20.012C266.467 20.508 266.711 21.204 266.711 22.1V26H265.031V22.328C265.031 21.8 264.899 21.396 264.635 21.116C264.371 20.828 264.011 20.684 263.555 20.684C263.091 20.684 262.723 20.828 262.451 21.116C262.187 21.396 262.055 21.8 262.055 22.328V26H260.375V19.352H262.055V20.18C262.279 19.892 262.563 19.668 262.907 19.508C263.259 19.34 263.643 19.256 264.059 19.256ZM270.264 20.732V23.948C270.264 24.172 270.316 24.336 270.42 24.44C270.532 24.536 270.716 24.584 270.972 24.584H271.752V26H270.696C269.28 26 268.572 25.312 268.572 23.936V20.732H267.78V19.352H268.572V17.708H270.264V19.352H271.752V20.732H270.264Z" fill="white"/>
<defs>
<clipPath id="clip0_6005_14263">
<rect width="11" height="11" fill="white" transform="translate(217 4)"/>
</clipPath>
</defs>
</svg>
